# xmcd
# 
# Track frame offsets:
#     150
#     12956
#     30906
#     44759
#     62834
#     74632
#     88164
#     100312
#     116427
#     127790
#     144756
#     152718
# 
# Disc length: 2327
# 
# Revision: 7
# Processed by: cddbd v1.5.2PL0 Copyright (c) Steve Scherf et al.
# Submitted via: fre:ac v1.0.31
# 
DISCID=9c09150c
DTITLE=The Little Willies - For the Good Times
DYEAR=2012
DGENRE=Folk/Country
TTITLE0=I Worship you
TTITLE1=Remember me
TTITLE2=Diesel Smoke, Dangerous Curves
TTITLE3=Lovesick Blues
TTITLE4=Tommy Rockwood
TTITLE5=Fist City
TTITLE6=Permanently Lonely
TTITLE7=Foul Owl on the Prowl
TTITLE8=Wide Open Road
TTITLE9=For the Good Times
TTITLE10=If You've Got the Money I've Got the Time
TTITLE11=Jolene
EXTD=
EXTT0=
EXTT1=
EXTT2=
EXTT3=
EXTT4=
EXTT5=
EXTT6=
EXTT7=
EXTT8=
EXTT9=
EXTT10=
EXTT11=
PLAYORDER=
